PathFileType	4	(X/Y/Z)	C:\Users\WrightLab\Desktop\Jo\P2_Trial38.trc
DataRate	CameraRate	NumFrames	NumMarkers	Units	OrigDataRate	OrigDataStartFrame	OrigNumFrames
100.00	100.00	      16	19	mm	100.00	962	      1099
Frame#	Time	Headset_Front			Headset_Back			Headset_Left			Headset_Right			Left_Shoulder			Right_Shoulder			Sternum			C7			Left Elbow			Right Elbow			Left Wrist			Right Wrist			Left ASIS			Right ASIS			S2			Left Knee			Right Knee			Left Ankle			Right Ankle			
		X1	Y1	Z1	X2	Y2	Z2	X3	Y3	Z3	X4	Y4	Z4	X5	Y5	Z5	X6	Y6	Z6	X7	Y7	Z7	X8	Y8	Z8	X9	Y9	Z9	X10	Y10	Z10	X11	Y11	Z11	X12	Y12	Z12	X13	Y13	Z13	X14	Y14	Z14	X15	Y15	Z15	X16	Y16	Z16	X17	Y17	Z17	X18	Y18	Z18	X19	Y19	Z19	

962	9.610	-606.12231	1465.64087	-649.14539	-672.41675	1679.52954	-433.99426	-754.32410	1570.63867	-540.97577	-525.80408	1545.60718	-549.16479	-803.57385	1431.02588	-395.60944	-479.96756	1431.06616	-443.61105	-647.68665	1312.26440	-480.94125	-615.06805	1430.99829	-306.32254	-910.37183	1090.08484	-440.01501	-374.46109	1108.41943	-389.34265	-969.61353	871.52454	-500.41452	-334.87894	857.80872	-415.27182	-708.27948	1018.26025	-485.13440	-575.24988	996.85632	-506.66556	-619.47437	943.69171	-231.88385	-857.60406	445.32919	-446.07404	-464.48874	531.19476	-431.52011	-827.34656	272.41980	-191.47253	-573.38702	108.89519	-416.68646	
963	9.620	-605.02991	1466.85693	-656.58795	-673.00482	1680.46362	-441.55402	-754.35815	1571.76648	-549.52423	-525.59808	1547.40344	-556.70013	-804.15741	1432.05176	-404.83447	-480.14981	1432.80383	-451.36600	-647.36084	1314.19141	-489.85425	-615.84796	1431.92615	-314.89688	-908.15851	1090.77869	-449.61569	-375.47803	1109.23059	-398.13568	-964.95233	871.25317	-510.15421	-335.58948	859.12769	-428.94965	-707.06848	1020.10345	-495.59579	-573.99811	997.09198	-515.29456	-623.22656	944.46533	-240.08008	-862.96722	450.74631	-467.63083	-463.68594	530.66650	-432.13937	-832.59790	274.82913	-216.19240	-581.56799	99.98141	-417.52621	
964	9.630	-603.82507	1468.27576	-664.82184	-673.33417	1681.43530	-449.97409	-752.79401	1572.56787	-558.21954	-524.51166	1548.75781	-565.13922	-803.95483	1432.83301	-413.97299	-479.88947	1433.60059	-457.35049	-646.75977	1314.91772	-497.54932	-616.38733	1433.49805	-322.37442	-906.11285	1090.85352	-458.18011	-376.62708	1109.92920	-406.74072	-960.37408	870.84692	-517.56885	-335.87509	861.23041	-442.63446	-706.08380	1021.24866	-505.15591	-573.13263	998.62048	-524.26398	-627.51367	944.37897	-250.29083	-868.18835	456.50037	-487.51785	-462.86682	530.81848	-431.54889	-837.06683	275.38626	-241.40961	-578.13336	99.49025	-416.80768	
965	9.640	-602.71411	1469.08215	-672.59576	-673.68018	1682.14404	-457.92709	-753.69403	1573.01221	-566.35388	-524.47876	1549.88855	-571.23120	-804.02301	1433.12830	-422.65985	-479.90433	1434.39087	-465.12363	-646.64685	1316.16016	-506.43686	-616.39532	1433.43225	-330.23358	-904.26227	1090.91663	-466.80231	-378.27637	1110.41553	-415.28699	-956.15845	870.40082	-525.36749	-336.53452	863.23688	-456.60333	-705.25171	1022.12378	-515.12372	-571.10773	997.98425	-531.18610	-630.56598	944.25592	-259.04510	-872.46436	462.75784	-509.00443	-462.50696	530.39545	-431.50024	-841.24719	276.23175	-266.74774	-574.64093	99.02941	-416.98438	
966	9.650	-601.60004	1469.69568	-680.87622	-674.01935	1682.46619	-465.91870	-753.46082	1573.81006	-575.29901	-523.49438	1550.44519	-579.72937	-804.36267	1433.83911	-431.92072	-479.43484	1435.19324	-473.71484	-646.21741	1316.72595	-515.07568	-616.05725	1433.22876	-337.96109	-902.44775	1090.94812	-475.67328	-379.19989	1110.83923	-424.24484	-952.15704	869.62988	-533.14673	-337.60602	864.39203	-470.63034	-704.61273	1022.42468	-524.96790	-570.36200	998.05316	-539.16290	-634.48706	944.66315	-269.09210	-876.14294	468.78931	-531.60266	-462.36328	529.24286	-430.46600	-844.74548	275.19516	-291.57568	-562.67480	103.52576	-415.99338	
967	9.660	-600.48785	1470.06470	-689.27826	-674.18597	1682.69397	-474.39255	-751.40308	1573.62366	-584.19421	-523.02155	1551.32458	-587.50201	-804.26410	1433.74121	-440.97763	-479.83932	1435.22424	-479.87311	-645.80109	1316.97913	-523.49939	-617.54785	1433.74133	-346.45367	-900.74951	1090.51514	-483.72232	-379.40320	1110.59082	-434.33237	-948.51001	869.01483	-541.27185	-337.89471	865.39874	-484.66589	-703.86975	1022.84088	-534.62830	-569.63110	997.53809	-546.53796	-637.48596	944.98376	-276.57751	-878.13281	473.01349	-553.16492	-462.62225	528.63776	-430.05576	-849.57593	274.73337	-316.83667	-559.56427	102.53201	-416.19348	
968	9.670	-599.28577	1470.24219	-697.66327	-674.34772	1682.33801	-482.56277	-752.35883	1574.07202	-593.29205				-804.78320	1434.14392	-450.60382	-479.28113	1435.43018	-487.84439	-645.75732	1316.99792	-531.31653	-618.32782	1433.58801	-355.28751	-899.34912	1089.73218	-491.70245	-380.50015	1110.15637	-444.32697	-945.04193	868.12781	-548.37378	-338.57288	867.04022	-499.83929	-703.46075	1022.42798	-544.36615	-568.98212	997.42096	-554.39746	-640.92670	944.83844	-285.31763	-879.64886	477.08353	-574.51379	-462.23660	528.09930	-429.71851	-853.24994	272.40186	-341.20697	-557.10419	100.84041	-416.25504	
969	9.680	-598.09589	1470.02173	-705.90613	-674.49084	1681.93689	-491.20471	-750.28278	1573.22009	-602.18591				-804.57458	1433.49536	-459.90714	-479.62302	1434.80640	-495.32880	-645.53345	1316.96716	-539.91089	-619.17041	1433.22888	-363.15131	-898.15393	1088.79736	-499.27396	-380.24695	1109.95117	-453.93933	-942.83600	866.39734	-554.74878	-339.18817	867.24805	-512.61536	-702.88751	1022.18457	-553.55176	-568.18597	997.03125	-562.62622	-643.76575	944.05756	-294.32187	-879.06183	479.97601	-594.99811	-462.47931	527.63373	-429.14880	-857.17676	269.27798	-365.88132	-553.96436	99.89687	-416.12274	
970	9.690	-596.94000	1469.41284	-714.11121				-749.85870	1571.93958	-611.02515				-804.94104	1432.83508	-468.96973	-479.70444	1434.28589	-502.58154	-645.73059	1316.32178	-548.48712	-618.90649	1432.31226	-371.92868	-897.13605	1087.89795	-507.17123	-379.23505	1109.48743	-464.42648	-940.58887	864.73596	-561.49908	-339.37930	867.39716	-527.30566	-702.59985	1021.13544	-562.40912	-567.89484	996.12469	-570.04053	-646.99078	943.17859	-304.97733	-878.03375	481.78741	-613.02979	-462.37262	526.98694	-428.27737	-861.65723	266.29419	-391.52216	-560.35284	92.83514	-420.26038	
971	9.700	-595.84320	1468.16016	-722.39685	-674.52521	1680.52844	-509.28101	-749.18616	1571.14026	-620.44598				-805.21875	1432.55090	-478.87976	-480.14386	1433.44287	-510.76678	-644.94788	1315.14673	-556.39001	-619.99725	1431.88489	-380.28754	-896.44189	1086.45654	-514.63794	-378.16132	1108.72583	-475.56210	-939.16132	862.70111	-568.82690	-339.90051	867.82849	-541.77338	-702.12268	1020.41742	-572.28247	-630.04224	967.80438	-545.20825	-650.15521	942.11725	-313.94193	-876.61096	483.62881	-630.59723	-462.62012	526.61926	-428.26215	-865.43420	261.02789	-415.87564	-555.22504	93.46955	-416.09537	
972	9.710	-594.59314	1467.34290	-732.19666	-674.48706	1679.33362	-518.69543	-748.50507	1569.92126	-629.91693				-805.14301	1431.27185	-488.24222	-479.73126	1432.19019	-518.40485	-644.90607	1314.15466	-564.96179	-621.01074	1430.88367	-388.74683	-896.16150	1085.00488	-521.87732	-377.66919	1106.87720	-485.90036	-938.47760	860.18103	-574.14764	-340.09402	866.68195	-555.51831	-701.62384	1019.26959	-581.30743	-564.42999	993.12756	-585.31586	-653.46918	941.46033	-321.18411	-874.39148	484.72144	-646.60565	-463.02087	525.45770	-427.64157	-868.58118	255.77626	-441.15723	-541.83777	97.98477	-413.23849	
973	9.720	-593.47498	1465.25452	-740.13501	-674.36926	1678.05212	-528.06091	-747.85437	1568.42371	-639.37213				-805.57849	1430.38159	-498.34189	-479.29404	1431.19617	-526.05194	-645.03424	1312.73499	-574.24384	-621.33899	1429.88379	-398.19098	-896.35468	1083.62939	-529.91241	-374.80515	1107.20654	-496.00064	-938.50043	857.74579	-581.28931	-340.40289	866.45471	-570.18085	-701.06213	1018.30084	-590.51459	-566.99628	992.99451	-593.76465	-656.25446	940.07129	-330.21655	-871.93469	485.26141	-661.56012	-463.23080	525.20062	-427.80057	-873.14087	248.94545	-465.83292	-538.95038	95.84837	-411.69934	
974	9.730	-592.21808	1463.58850	-749.16437	-674.19196	1676.78210	-537.86005	-747.16992	1566.54858	-649.42621				-805.61841	1428.97449	-508.25519	-479.75470	1429.03333	-532.74786	-644.26373	1310.92468	-582.73199	-621.54596	1427.81128	-405.79990	-897.20935	1082.28345	-538.00769	-373.32031	1105.54126	-506.59122	-939.35168	854.69238	-586.09595	-340.65277	866.14771	-585.13416	-700.49652	1017.49640	-600.11957	-566.48163	991.51721	-601.34143	-658.50580	938.72809	-339.31906	-869.04291	484.80524	-675.31433	-463.60242	524.24451	-427.54535	-878.45807	241.93999	-490.08429	-541.70093	89.55509	-413.01398	
975	9.740	-591.08960	1461.18787	-757.95941										-806.06238	1428.06238	-518.71075	-479.39450	1427.33020	-541.21100	-643.69543	1309.42920	-591.30353	-622.39551	1427.06494	-414.98956	-898.45203	1080.47412	-545.66730	-371.31845	1105.35803	-517.33282	-940.29218	851.92438	-591.30640	-341.07898	864.84161	-598.63806	-699.84888	1016.32422	-608.95081	-566.22998	989.87915	-609.82800	-661.46082	937.14056	-348.91818	-866.36176	485.03989	-689.70129	-464.03079	522.97046	-426.38217	-882.40198	232.97562	-514.93451	-530.97461	92.17338	-410.27420	
976	9.750	-589.88739	1458.59668	-766.80139	-673.76654	1673.74634	-557.91394	-745.72601	1562.50977	-669.44043				-805.83209	1426.41992	-528.94952	-479.28119	1425.55493	-549.48260	-643.81134	1308.00903	-600.19739	-623.31146	1425.16638	-424.07166	-900.13245	1078.81665	-554.27521	-369.22360	1103.49023	-527.24921	-942.10223	848.88916	-595.92188	-341.78369	863.89978	-612.71832	-614.69843	876.44031	-710.71002	-623.94012	961.61090	-589.70258	-663.54492	936.16742	-358.41620	-862.50757	482.17490	-701.37091	-464.46152	521.93909	-426.24594	-887.51294	221.98209	-540.82507	-526.92511	90.73394	-408.36795	
977	9.760	-588.56012	1456.34546	-776.41418	-673.70813	1671.81384	-568.03082	-745.01184	1560.27600	-679.35730				-806.14197	1424.70496	-539.24316	-479.74823	1423.09937	-556.58575	-643.49640	1305.82483	-608.92322	-624.14215	1423.64441	-433.31183	-902.59607	1077.15588	-562.52362	-368.31992	1102.05579	-537.12250	-944.13580	845.73419	-600.61505	-342.07068	863.59900	-626.99017	-565.40204	986.85095	-625.83112	-698.66656	1013.98956	-628.28809	-666.02173	934.03674	-367.54810	-859.50995	480.73935	-712.09491	-465.02301	520.34406	-426.04352	-893.03900	209.86014	-566.58032	-523.90906	88.61299	-406.52344	
